<?xml version="1.0" encoding="UTF-8" standalone="no"?>
<!DOCTYPE svg PUBLIC "-//W3C//DTD SVG 1.1//EN" "http://www.w3.org/Graphics/SVG/1.1/DTD/svg11.dtd">
<svg width="100%" height="100%" viewBox="0 0 3300 2200" version="1.1" xmlns="http://www.w3.org/2000/svg" xmlns:xlink="http://www.w3.org/1999/xlink" xml:space="preserve" xmlns:serif="http://www.serif.com/" style="fill-rule:evenodd;clip-rule:evenodd;">
    <g id="Notes">
        <rect id="artboard" x="0" y="0" width="3300" height="2200" style="fill:white;"/>
        <path d="M263,292L3036,292" style="fill:none;fill-rule:nonzero;stroke:black;stroke-width:0.5px;"/>
        <g transform="matrix(1,0,0,1,263,322)">
            <text x="0px" y="0px" style="font-family:'SFProDisplay-Regular', 'SF Pro Display';font-size:16px;">W<tspan x="13.922px " y="0px ">e</tspan>ight/Scale V<tspan x="101.313px " y="0px ">a</tspan>riations</text>
        </g>
        <g transform="matrix(1,0,0,1,559.711,322)">
            <text x="-30.41px" y="0px" style="font-family:'SFProDisplay-Regular', 'SF Pro Display';font-size:16px;">Ultr<tspan x="-6.41px " y="0px ">a</tspan>light</text>
        </g>
        <g transform="matrix(1,0,0,1,856.422,322)">
            <text x="-14.824px" y="0px" style="font-family:'SFProDisplay-Regular', 'SF Pro Display';font-size:16px;">Thin</text>
        </g>
        <g transform="matrix(1,0,0,1,1153.13,322)">
            <text x="-16.957px" y="0px" style="font-family:'SFProDisplay-Regular', 'SF Pro Display';font-size:16px;">Light</text>
        </g>
        <g transform="matrix(1,0,0,1,1449.84,322)">
            <text x="-25.609px" y="0px" style="font-family:'SFProDisplay-Regular', 'SF Pro Display';font-size:16px;">Regular</text>
        </g>
        <g transform="matrix(1,0,0,1,1746.56,322)">
            <text x="-27.465px" y="0px" style="font-family:'SFProDisplay-Regular', 'SF Pro Display';font-size:16px;">Medium</text>
        </g>
        <g transform="matrix(1,0,0,1,2043.27,322)">
            <text x="-31.656px" y="0px" style="font-family:'SFProDisplay-Regular', 'SF Pro Display';font-size:16px;">Semibold</text>
        </g>
        <g transform="matrix(1,0,0,1,2339.98,322)">
            <text x="-15.145px" y="0px" style="font-family:'SFProDisplay-Regular', 'SF Pro Display';font-size:16px;">Bold</text>
        </g>
        <g transform="matrix(1,0,0,1,2636.69,322)">
            <text x="-21.461px" y="0px" style="font-family:'SFProDisplay-Regular', 'SF Pro Display';font-size:16px;">Heavy</text>
        </g>
        <g transform="matrix(1,0,0,1,2933.4,322)">
            <text x="-18.375px" y="0px" style="font-family:'SFProDisplay-Regular', 'SF Pro Display';font-size:16px;">Black</text>
        </g>
        <path d="M263,1903L3036,1903" style="fill:none;fill-rule:nonzero;stroke:black;stroke-width:0.5px;"/>
        <g transform="matrix(1,0,0,1,263,1933)">
            <path d="M9.248,0.83C13.555,0.83 17.139,-2.744 17.139,-7.051C17.139,-11.357 13.545,-14.932 9.238,-14.932C4.941,-14.932 1.367,-11.357 1.367,-7.051C1.367,-2.744 4.951,0.83 9.248,0.83ZM9.248,-0.654C5.703,-0.654 2.871,-3.496 2.871,-7.051C2.871,-10.605 5.693,-13.447 9.238,-13.447C12.793,-13.447 15.635,-10.605 15.645,-7.051C15.654,-3.496 12.803,-0.654 9.248,-0.654ZM6.396,-6.318L8.506,-6.318L8.506,-4.199C8.506,-3.76 8.799,-3.457 9.229,-3.457C9.678,-3.457 9.971,-3.76 9.971,-4.199L9.971,-6.318L12.1,-6.318C12.539,-6.318 12.842,-6.611 12.842,-7.041C12.842,-7.48 12.539,-7.783 12.1,-7.783L9.971,-7.783L9.971,-9.893C9.971,-10.342 9.678,-10.645 9.229,-10.645C8.799,-10.645 8.506,-10.342 8.506,-9.893L8.506,-7.783L6.396,-7.783C5.947,-7.783 5.645,-7.48 5.645,-7.041C5.645,-6.611 5.947,-6.318 6.396,-6.318Z" style="fill-rule:nonzero;"/>
        </g>
        <g transform="matrix(1,0,0,1,281.506,1933)">
            <path d="M11.709,2.91C17.158,2.91 21.67,-1.611 21.67,-7.051C21.67,-12.5 17.148,-17.012 11.699,-17.012C6.26,-17.012 1.748,-12.5 1.748,-7.051C1.748,-1.611 6.27,2.91 11.709,2.91ZM11.709,1.25C7.1,1.25 3.418,-2.441 3.418,-7.051C3.418,-11.66 7.09,-15.352 11.699,-15.352C16.309,-15.352 20,-11.66 20.01,-7.051C20.02,-2.441 16.318,1.25 11.709,1.25ZM7.988,-6.23L10.879,-6.23L10.879,-3.32C10.879,-2.832 11.211,-2.5 11.69,-2.5C12.178,-2.5 12.52,-2.832 12.52,-3.32L12.52,-6.23L15.43,-6.23C15.918,-6.23 16.25,-6.563 16.25,-7.041C16.25,-7.529 15.918,-7.871 15.43,-7.871L12.52,-7.871L12.52,-10.762C12.52,-11.27 12.178,-11.602 11.69,-11.602C11.211,-11.602 10.879,-11.26 10.879,-10.762L10.879,-7.871L7.988,-7.871C7.48,-7.871 7.148,-7.529 7.148,-7.041C7.148,-6.563 7.49,-6.23 7.988,-6.23Z" style="fill-rule:nonzero;"/>
        </g>
        <g transform="matrix(1,0,0,1,304.924,1933)">
            <path d="M14.971,5.664C21.934,5.664 27.695,-0.098 27.695,-7.051C27.695,-14.014 21.924,-19.775 14.961,-19.775C8.008,-19.775 2.256,-14.014 2.256,-7.051C2.256,-0.098 8.018,5.664 14.971,5.664ZM14.971,3.848C8.936,3.848 4.082,-1.016 4.082,-7.051C4.082,-13.096 8.926,-17.949 14.961,-17.949C21.006,-17.949 25.859,-13.096 25.869,-7.051C25.879,-1.016 21.016,3.848 14.971,3.848ZM10.059,-6.143L14.063,-6.143L14.063,-2.129C14.063,-1.592 14.434,-1.221 14.951,-1.221C15.488,-1.221 15.859,-1.592 15.859,-2.129L15.859,-6.143L19.883,-6.143C20.41,-6.143 20.791,-6.514 20.791,-7.031C20.791,-7.568 20.42,-7.949 19.883,-7.949L15.859,-7.949L15.859,-11.953C15.859,-12.51 15.488,-12.881 14.951,-12.881C14.434,-12.881 14.063,-12.5 14.063,-11.953L14.063,-7.949L10.059,-7.949C9.502,-7.949 9.131,-7.568 9.131,-7.031C9.131,-6.514 9.512,-6.143 10.059,-6.143Z" style="fill-rule:nonzero;"/>
        </g>
        <g transform="matrix(1,0,0,1,263,1953)">
            <text x="0px" y="0px" style="font-family:'SFProDisplay-Regular', 'SF Pro Display';font-size:16px;">Design V<tspan x="59.211px " y="0px ">a</tspan>riations</text>
        </g>
        <g transform="matrix(1,0,0,1,263,1971)">
            <text x="0px" y="0px" style="font-family:'SFProDisplay-Regular', 'SF Pro Display';font-size:16px;">Symbols ar<tspan x="74.039px " y="0px ">e</tspan> support<tspan x="136.977px " y="0px ">e</tspan>d in up t<tspan x="197.406px " y="0px ">o</tspan> nine weights and thr<tspan x="343.289px " y="0px ">e</tspan>e scales.</text>
        </g>
        <g transform="matrix(1,0,0,1,263,1989)">
            <text x="0px" y="0px" style="font-family:'SFProDisplay-Regular', 'SF Pro Display';font-size:16px;">F<tspan x="8.133px " y="0px ">o</tspan>r optimal lay<tspan x="96.43px " y="0px ">o</tspan>ut with t<tspan x="157.508px 165.547px " y="0px 0px ">ex</tspan>t and other symbols,<tspan x="306.883px 310.164px 317.578px " y="0px 0px 0px "> ve</tspan>rtically align</text>
        </g>
        <g transform="matrix(1,0,0,1,263,2007)">
            <text x="0px" y="0px" style="font-family:'SFProDisplay-Regular', 'SF Pro Display';font-size:16px;">symbols with the adjacent t<tspan x="181.344px 189.383px " y="0px 0px ">ex</tspan>t.</text>
        </g>
        <path d="M776,1919L776,1933" style="fill:none;fill-rule:nonzero;stroke:rgb(0,174,239);stroke-width:0.5px;"/>
        <g transform="matrix(1,0,0,1,776,1933)">
            <path d="M3.311,0.127C3.828,0.127 4.082,-0.068 4.268,-0.605L5.527,-4.063L11.289,-4.063L12.549,-0.605C12.734,-0.068 12.988,0.127 13.496,0.127C14.014,0.127 14.346,-0.186 14.346,-0.674C14.346,-0.84 14.316,-0.986 14.238,-1.201L9.658,-13.389C9.434,-13.994 9.033,-14.287 8.408,-14.287C7.803,-14.287 7.393,-13.994 7.178,-13.398L2.598,-1.191C2.52,-0.977 2.49,-0.83 2.49,-0.664C2.49,-0.176 2.803,0.127 3.311,0.127ZM6.006,-5.537L8.379,-12.109L8.428,-12.109L10.801,-5.537L6.006,-5.537Z" style="fill-rule:nonzero;"/>
        </g>
        <path d="M792.836,1919L792.836,1933" style="fill:none;fill-rule:nonzero;stroke:rgb(0,174,239);stroke-width:0.5px;"/>
        <g transform="matrix(1,0,0,1,776,1953)">
            <text x="0px" y="0px" style="font-family:'SFProDisplay-Regular', 'SF Pro Display';font-size:16px;">M<tspan x="13.063px 21.094px 25.633px " y="0px 0px 0px ">arg</tspan>ins</text>
        </g>
        <g transform="matrix(1,0,0,1,776,1971)">
            <text x="0px" y="0px" style="font-family:'SFProDisplay-Regular', 'SF Pro Display';font-size:16px;">L<tspan x="8.156px " y="0px ">e</tspan>ading and tr<tspan x="95.227px " y="0px ">a</tspan>iling mar<tspan x="159.031px " y="0px ">g</tspan>ins on the left and right side of each symbol</text>
        </g>
        <g transform="matrix(1,0,0,1,776,1989)">
            <text x="0px" y="0px" style="font-family:'SFProDisplay-Regular', 'SF Pro Display';font-size:16px;">can be adjust<tspan x="88.727px " y="0px ">e</tspan>d b<tspan x="117.609px " y="0px ">y</tspan> modifying the x<tspan x="230.703px " y="0px ">-</tspan>location of the mar<tspan x="360.664px " y="0px ">g</tspan>in guidelines.</text>
        </g>
        <g transform="matrix(1,0,0,1,776,2007)">
            <text x="0px" y="0px" style="font-family:'SFProDisplay-Regular', 'SF Pro Display';font-size:16px;">Modifications ar<tspan x="106.484px " y="0px ">e</tspan> aut<tspan x="139.008px " y="0px ">o</tspan>matically applied pr<tspan x="275.977px " y="0px ">o</tspan>portionally t<tspan x="361.93px " y="0px ">o</tspan> all</text>
        </g>
        <g transform="matrix(1,0,0,1,776,2025)">
            <text x="0px" y="0px" style="font-family:'SFProDisplay-Regular', 'SF Pro Display';font-size:16px;">scales and weights.</text>
        </g>
        <g transform="matrix(1,0,0,1,1289,1933)">
            <path d="M2.842,1.865L4.541,3.574C5.4,4.443 6.387,4.385 7.314,3.359L17.49,-7.852C17.754,-7.764 18.027,-7.783 18.34,-7.842L19.404,-8.037L20.068,-7.363L20.029,-6.807C19.99,-6.309 20.117,-5.928 20.606,-5.449L21.367,-4.707C21.846,-4.229 22.461,-4.199 22.93,-4.668L25.84,-7.588C26.309,-8.057 26.289,-8.652 25.811,-9.131L25.039,-9.893C24.561,-10.371 24.19,-10.527 23.711,-10.488L23.135,-10.44L22.49,-11.074L22.734,-12.197C22.861,-12.764 22.705,-13.203 22.119,-13.789L19.922,-15.977C16.582,-19.297 12.148,-19.219 9.258,-16.328C8.838,-15.918 8.809,-15.342 9.043,-14.951C9.277,-14.59 9.736,-14.355 10.381,-14.522C11.846,-14.863 13.369,-14.922 14.795,-13.984L14.209,-12.529C14.014,-12.051 13.984,-11.65 14.111,-11.289L3.047,-0.898C2.061,0.02 1.982,0.996 2.842,1.865ZM10.752,-15.957C13.184,-17.734 16.475,-17.432 18.701,-15.205L21.133,-12.793C21.367,-12.559 21.406,-12.373 21.338,-12.031L21.016,-10.547L22.52,-9.063L23.506,-9.121C23.76,-9.131 23.838,-9.111 24.033,-8.916L24.609,-8.34L22.168,-5.898L21.592,-6.475C21.397,-6.67 21.367,-6.748 21.377,-7.012L21.445,-7.988L19.951,-9.473L18.428,-9.219C18.106,-9.15 17.959,-9.18 17.715,-9.414L15.713,-11.416C15.459,-11.65 15.43,-11.816 15.586,-12.188L16.465,-14.277C14.902,-15.732 12.871,-16.357 10.84,-15.762C10.684,-15.723 10.625,-15.85 10.752,-15.957ZM5.273,2.305L4.102,1.143C3.633,0.684 3.74,0.342 4.141,-0.02L14.951,-10.195L16.416,-8.711L6.426,2.275C6.074,2.676 5.742,2.773 5.273,2.305Z" style="fill-rule:nonzero;"/>
        </g>
        <g transform="matrix(1,0,0,1,1289,1953)">
            <text x="0px" y="0px" style="font-family:'SFProDisplay-Regular', 'SF Pro Display';font-size:16px;">Exporting</text>
        </g>
        <g transform="matrix(1,0,0,1,1289,1971)">
            <text x="0px" y="0px" style="font-family:'SFProDisplay-Regular', 'SF Pro Display';font-size:16px;">Symbols should be outlined when e<tspan x="235.289px " y="0px ">x</tspan>porting t<tspan x="298.188px " y="0px ">o</tspan> ensur<tspan x="347px " y="0px ">e</tspan> the</text>
        </g>
        <g transform="matrix(1,0,0,1,1289,1989)">
            <text x="0px" y="0px" style="font-family:'SFProDisplay-Regular', 'SF Pro Display';font-size:16px;">design is pr<tspan x="75.641px " y="0px ">e</tspan>serv<tspan x="111.82px " y="0px ">e</tspan>d when submitting t<tspan x="251.031px " y="0px ">o</tspan> X<tspan x="272.414px " y="0px ">c</tspan>ode.</text>
        </g>
        <g id="template-version" transform="matrix(1,0,0,1,3036,1933)">
            <text x="-96.57px" y="0px" style="font-family:'SFProDisplay-Regular', 'SF Pro Display';font-size:16px;">T<tspan x="-89.383px " y="0px ">e</tspan>mplat<tspan x="-43.664px " y="0px ">e</tspan> v<tspan x="-25.633px " y="0px ">.</tspan>2.0</text>
        </g>
        <g transform="matrix(1,0,0,1,3036,1951)">
            <text x="-191.594px" y="0px" style="font-family:'SFProDisplay-Regular', 'SF Pro Display';font-size:16px;">Requir<tspan x="-148.766px " y="0px ">e</tspan>s X<tspan x="-120.234px " y="0px ">c</tspan>ode 12 or gr<tspan x="-33.938px " y="0px ">e</tspan>at<tspan x="-13.125px " y="0px ">e</tspan>r</text>
        </g>
        <g transform="matrix(1,0,0,1,3036,1969)">
            <text x="-204.289px" y="0px" style="font-family:'SFProDisplay-Regular', 'SF Pro Display';font-size:16px;">Gener<tspan x="-163.391px -155.359px -150.773px " y="0px 0px 0px ">ate</tspan>d fr<tspan x="-121.039px " y="0px ">o</tspan>m pencil.<tspan x="-53.453px " y="0px ">c</tspan>ir<tspan x="-37.602px " y="0px ">c</tspan>le.fill</text>
        </g>
        <g transform="matrix(1,0,0,1,3036,1987)">
            <text x="-143.117px" y="0px" style="font-family:'SFProDisplay-Regular', 'SF Pro Display';font-size:16px;">T<tspan x="-135.695px " y="0px ">y</tspan>peset at 100 points</text>
        </g>
        <g transform="matrix(1,0,0,1,263,726)">
            <text x="0px" y="0px" style="font-family:'SFProDisplay-Regular', 'SF Pro Display';font-size:16px;">Small</text>
        </g>
        <g transform="matrix(1,0,0,1,263,1156)">
            <text x="0px" y="0px" style="font-family:'SFProDisplay-Regular', 'SF Pro Display';font-size:16px;">Medium</text>
        </g>
        <g transform="matrix(1,0,0,1,263,1586)">
            <text x="0px" y="0px" style="font-family:'SFProDisplay-Regular', 'SF Pro Display';font-size:16px;">Lar<tspan x="20.961px " y="0px ">g</tspan>e</text>
        </g>
    </g>
    <g id="Guides">
        <g id="H-reference" transform="matrix(1,0,0,1,339,696)">
            <path d="M0.977,0L3.662,0L12.988,-24.463L45.752,-24.463L55.127,0L57.764,0L30.615,-70.459L28.125,-70.459L0.977,0ZM29.346,-67.139L29.443,-67.139L44.873,-26.709L13.867,-26.709L29.346,-67.139Z" style="fill:rgb(39,170,225);fill-rule:nonzero;"/>
        </g>
        <path id="Baseline-S" d="M263,696L3036,696" style="fill:none;fill-rule:nonzero;stroke:rgb(39,170,225);stroke-width:0.5px;"/>
        <path id="Capline-S" d="M263,625.541L3036,625.541" style="fill:none;fill-rule:nonzero;stroke:rgb(39,170,225);stroke-width:0.5px;"/>
        <g id="H-reference1" serif:id="H-reference" transform="matrix(1,0,0,1,339,1126)">
            <path d="M0.977,0L3.662,0L12.988,-24.463L45.752,-24.463L55.127,0L57.764,0L30.615,-70.459L28.125,-70.459L0.977,0ZM29.346,-67.139L29.443,-67.139L44.873,-26.709L13.867,-26.709L29.346,-67.139Z" style="fill:rgb(39,170,225);fill-rule:nonzero;"/>
        </g>
        <path id="Baseline-M" d="M263,1126L3036,1126" style="fill:none;fill-rule:nonzero;stroke:rgb(39,170,225);stroke-width:0.5px;"/>
        <path id="Capline-M" d="M263,1055.54L3036,1055.54" style="fill:none;fill-rule:nonzero;stroke:rgb(39,170,225);stroke-width:0.5px;"/>
        <g id="H-reference2" serif:id="H-reference" transform="matrix(1,0,0,1,339,1556)">
            <path d="M0.977,0L3.662,0L12.988,-24.463L45.752,-24.463L55.127,0L57.764,0L30.615,-70.459L28.125,-70.459L0.977,0ZM29.346,-67.139L29.443,-67.139L44.873,-26.709L13.867,-26.709L29.346,-67.139Z" style="fill:rgb(39,170,225);fill-rule:nonzero;"/>
        </g>
        <path id="Baseline-L" d="M263,1556L3036,1556" style="fill:none;fill-rule:nonzero;stroke:rgb(39,170,225);stroke-width:0.5px;"/>
        <path id="Capline-L" d="M263,1485.54L3036,1485.54" style="fill:none;fill-rule:nonzero;stroke:rgb(39,170,225);stroke-width:0.5px;"/>
        <path id="left-margin" d="M1391.3,1030.79L1391.3,1150.12" style="fill:none;fill-rule:nonzero;stroke:rgb(0,174,239);stroke-width:0.5px;"/>
        <path id="right-margin" d="M1508.39,1030.79L1508.39,1150.12" style="fill:none;fill-rule:nonzero;stroke:rgb(0,174,239);stroke-width:0.5px;"/>
    </g>
    <g id="Symbols">
        <g id="Black-L" transform="matrix(1,0,0,1,2854.05,1556)">
            <path d="M79.346,32.91C116.748,32.91 147.412,2.295 147.412,-35.107C147.412,-72.559 116.748,-103.174 79.297,-103.174C41.895,-103.174 11.279,-72.559 11.279,-35.107C11.279,2.295 41.943,32.91 79.346,32.91ZM104.541,-50.293L93.75,-61.133L98.535,-66.065C101.318,-68.897 105.029,-68.994 107.764,-66.26L109.717,-64.307C112.354,-61.67 112.354,-57.861 109.521,-55.078L104.541,-50.293ZM61.328,-7.031L52.002,-3.613C48.877,-2.441 45.703,-5.42 46.973,-8.691L50.44,-17.871L89.453,-57.08L100.439,-46.094L61.328,-7.031Z" style="fill-rule:nonzero;"/>
        </g>
        <g id="Heavy-L" transform="matrix(1,0,0,1,2558.39,1556)">
            <path d="M78.272,31.885C115.088,31.885 145.312,1.66 145.312,-35.156C145.312,-71.924 115.039,-102.148 78.272,-102.148C41.455,-102.148 11.279,-71.924 11.279,-35.156C11.279,1.66 41.504,31.885 78.272,31.885ZM103.662,-51.27L93.75,-61.133L98.486,-65.967C101.074,-68.555 104.395,-68.652 106.885,-66.162L108.691,-64.404C111.133,-61.963 111.133,-58.545 108.447,-55.908L103.662,-51.27ZM59.473,-7.129L50.342,-3.662C47.705,-2.686 44.922,-5.225 46.045,-8.057L49.609,-16.992L89.648,-57.227L99.658,-47.217L59.473,-7.129Z" style="fill-rule:nonzero;"/>
        </g>
        <g id="Bold-L" transform="matrix(1,0,0,1,2262.88,1556)">
            <path d="M77.1,30.664C113.232,30.664 142.92,0.928 142.92,-35.156C142.92,-71.289 113.184,-100.977 77.051,-100.977C40.967,-100.977 11.279,-71.289 11.279,-35.156C11.279,0.928 41.016,30.664 77.1,30.664ZM102.686,-52.344L93.799,-61.182L98.389,-65.82C100.781,-68.213 103.711,-68.311 105.957,-66.065L107.52,-64.502C109.766,-62.256 109.717,-59.277 107.275,-56.885L102.686,-52.344ZM57.422,-7.178L48.486,-3.711C46.338,-2.93 44.043,-4.98 45.02,-7.324L48.584,-16.064L89.893,-57.422L98.828,-48.486L57.422,-7.178Z" style="fill-rule:nonzero;"/>
        </g>
        <g id="Semibold-L" transform="matrix(1,0,0,1,1966.97,1556)">
            <path d="M76.269,29.834C111.914,29.834 141.309,0.439 141.309,-35.156C141.309,-70.801 111.865,-100.195 76.269,-100.195C40.625,-100.195 11.279,-70.801 11.279,-35.156C11.279,0.439 40.674,29.834 76.269,29.834ZM102.002,-53.076L93.848,-61.231L98.34,-65.723C100.537,-67.92 103.223,-68.115 105.273,-66.016L106.738,-64.551C108.838,-62.5 108.789,-59.815 106.494,-57.52L102.002,-53.076ZM56.055,-7.227L47.217,-3.76C45.41,-3.076 43.457,-4.834 44.287,-6.836L47.949,-15.381L90.039,-57.52L98.242,-49.316L56.055,-7.227Z" style="fill-rule:nonzero;"/>
        </g>
        <g id="Medium-L" transform="matrix(1,0,0,1,1670.87,1556)">
            <path d="M75.684,29.199C110.938,29.199 140.088,0.098 140.088,-35.156C140.088,-70.459 110.889,-99.561 75.635,-99.561C40.381,-99.561 11.279,-70.459 11.279,-35.156C11.279,0.098 40.381,29.199 75.684,29.199ZM101.465,-53.662L93.848,-61.279L98.291,-65.674C100.391,-67.725 102.832,-67.92 104.785,-65.967L106.152,-64.648C108.105,-62.647 108.057,-60.205 105.859,-58.008L101.465,-53.662ZM54.981,-7.275L46.24,-3.809C44.727,-3.223 43.018,-4.736 43.75,-6.445L47.412,-14.893L90.186,-57.617L97.803,-50L54.981,-7.275Z" style="fill-rule:nonzero;"/>
        </g>
        <g id="Regular-L" transform="matrix(1,0,0,1,1374.97,1556)">
            <path d="M74.854,28.418C109.668,28.418 138.477,-0.391 138.477,-35.205C138.477,-69.971 109.619,-98.779 74.805,-98.779C40.039,-98.779 11.279,-69.971 11.279,-35.205C11.279,-0.391 40.088,28.418 74.854,28.418ZM100.781,-54.395L93.897,-61.279L98.242,-65.576C100.195,-67.481 102.344,-67.676 104.15,-65.918L105.322,-64.697C107.178,-62.891 107.129,-60.693 105.078,-58.691L100.781,-54.395ZM53.565,-7.324L44.971,-3.809C43.799,-3.369 42.432,-4.541 43.018,-5.957L46.777,-14.209L90.332,-57.764L97.217,-50.83L53.565,-7.324Z" style="fill-rule:nonzero;"/>
        </g>
        <g id="Light-L" transform="matrix(1,0,0,1,1079.18,1556)">
            <path d="M73.926,27.49C108.301,27.49 136.621,-0.83 136.621,-35.205C136.621,-69.531 108.252,-97.852 73.926,-97.852C39.551,-97.852 11.279,-69.531 11.279,-35.205C11.279,-0.83 39.6,27.49 73.926,27.49ZM100.293,-55.811L94.531,-61.621L98.242,-65.283C99.951,-66.992 101.807,-67.188 103.418,-65.576L104.199,-64.795C105.859,-63.184 105.811,-61.328 104.004,-59.473L100.293,-55.811ZM52.051,-7.715L43.994,-4.053C43.115,-3.711 41.992,-4.639 42.529,-5.713L46.338,-13.525L91.406,-58.545L97.217,-52.734L52.051,-7.715Z" style="fill-rule:nonzero;"/>
        </g>
        <g id="Thin-L" transform="matrix(1,0,0,1,783.693,1556)">
            <path d="M72.705,26.27C106.494,26.27 134.18,-1.416 134.18,-35.205C134.18,-68.945 106.494,-96.631 72.705,-96.631C38.965,-96.631 11.279,-68.945 11.279,-35.205C11.279,-1.416 38.965,26.27 72.705,26.27ZM99.658,-57.715L95.313,-62.012L98.193,-64.893C99.658,-66.309 101.123,-66.504 102.393,-65.186L102.686,-64.893C104.053,-63.574 104.102,-62.158 102.539,-60.547L99.658,-57.715ZM50.098,-8.252L42.725,-4.395C42.236,-4.102 41.504,-4.688 41.846,-5.371L45.85,-12.598L92.822,-59.619L97.168,-55.273L50.098,-8.252Z" style="fill-rule:nonzero;"/>
        </g>
        <g id="Ultralight-L" transform="matrix(1,0,0,1,487.616,1556)">
            <path d="M72.119,25.635C105.566,25.635 132.91,-1.709 132.91,-35.205C132.91,-68.652 105.566,-95.996 72.119,-95.996C38.623,-95.996 11.279,-68.652 11.279,-35.205C11.279,-1.709 38.623,25.635 72.119,25.635ZM99.316,-58.643L95.752,-62.256L98.193,-64.697C99.512,-65.967 100.781,-66.162 101.904,-64.99L101.953,-64.99C103.174,-63.77 103.271,-62.598 101.807,-61.133L99.316,-58.643ZM49.072,-8.545L42.09,-4.541C41.748,-4.346 41.211,-4.736 41.504,-5.176L45.557,-12.109L93.555,-60.156L97.168,-56.543L49.072,-8.545Z" style="fill-rule:nonzero;"/>
        </g>
        <g id="Black-M" transform="matrix(1,0,0,1,2870.97,1126)">
            <path d="M62.402,18.555C91.992,18.555 116.113,-5.566 116.113,-35.156C116.113,-64.746 91.992,-88.818 62.402,-88.818C32.813,-88.818 8.74,-64.746 8.74,-35.156C8.74,-5.566 32.813,18.555 62.402,18.555ZM81.934,-46.387L72.9,-55.42L76.465,-59.131C78.76,-61.523 81.982,-61.523 84.229,-59.228L85.791,-57.715C87.988,-55.518 88.037,-52.246 85.644,-49.902L81.934,-46.387ZM49.17,-13.525L41.992,-10.791C39.16,-9.717 36.231,-12.402 37.402,-15.381L40.039,-22.559L69.629,-52.344L78.809,-43.115L49.17,-13.525Z" style="fill-rule:nonzero;"/>
        </g>
        <g id="Heavy-M" transform="matrix(1,0,0,1,2575.19,1126)">
            <path d="M61.523,17.627C90.527,17.627 114.258,-6.104 114.258,-35.156C114.258,-64.16 90.527,-87.891 61.475,-87.891C32.471,-87.891 8.74,-64.16 8.74,-35.156C8.74,-6.104 32.471,17.627 61.523,17.627ZM81.104,-47.07L72.803,-55.371L76.367,-59.082C78.516,-61.279 81.397,-61.328 83.496,-59.228L84.961,-57.764C87.012,-55.713 87.012,-52.783 84.815,-50.635L81.104,-47.07ZM47.559,-13.477L40.43,-10.791C37.988,-9.863 35.498,-12.158 36.475,-14.746L39.209,-21.777L69.58,-52.344L78.027,-43.848L47.559,-13.477Z" style="fill-rule:nonzero;"/>
        </g>
        <g id="Bold-M" transform="matrix(1,0,0,1,2279.5,1126)">
            <path d="M60.498,16.553C88.867,16.553 112.207,-6.738 112.207,-35.156C112.207,-63.574 88.867,-86.914 60.449,-86.914C32.031,-86.914 8.74,-63.574 8.74,-35.156C8.74,-6.738 32.08,16.553 60.498,16.553ZM80.176,-47.803L72.656,-55.322L76.269,-59.033C78.272,-61.035 80.811,-61.084 82.666,-59.228L84.033,-57.861C85.889,-56.006 85.889,-53.418 83.887,-51.416L80.176,-47.803ZM45.752,-13.428L38.721,-10.742C36.719,-10.059 34.668,-11.914 35.498,-14.014L38.281,-20.947L69.482,-52.295L77.1,-44.678L45.752,-13.428Z" style="fill-rule:nonzero;"/>
        </g>
        <g id="Semibold-M" transform="matrix(1,0,0,1,1983.5,1126)">
            <path d="M59.766,15.869C87.744,15.869 110.791,-7.227 110.791,-35.156C110.791,-63.135 87.695,-86.231 59.766,-86.231C31.787,-86.231 8.74,-63.135 8.74,-35.156C8.74,-7.227 31.787,15.869 59.766,15.869ZM79.541,-48.34L72.559,-55.273L76.221,-58.984C78.076,-60.84 80.371,-60.938 82.129,-59.18L83.398,-57.91C85.156,-56.152 85.107,-53.857 83.203,-51.953L79.541,-48.34ZM44.531,-13.428L37.5,-10.742C35.84,-10.156 34.082,-11.719 34.815,-13.525L37.598,-20.361L69.482,-52.295L76.465,-45.264L44.531,-13.428Z" style="fill-rule:nonzero;"/>
        </g>
        <g id="Medium-M" transform="matrix(1,0,0,1,1687.3,1126)">
            <path d="M59.228,15.332C86.914,15.332 109.766,-7.52 109.766,-35.205C109.766,-62.842 86.865,-85.693 59.18,-85.693C31.543,-85.693 8.74,-62.842 8.74,-35.205C8.74,-7.52 31.592,15.332 59.228,15.332ZM79.053,-48.731L72.51,-55.273L76.172,-58.935C77.979,-60.693 80.029,-60.84 81.69,-59.18L82.91,-57.959C84.57,-56.299 84.522,-54.199 82.715,-52.393L79.053,-48.731ZM43.603,-13.379L36.621,-10.742C35.205,-10.254 33.643,-11.621 34.326,-13.184L37.109,-19.922L69.434,-52.246L75.977,-45.703L43.603,-13.379Z" style="fill-rule:nonzero;"/>
        </g>
        <g id="Regular-M" transform="matrix(1,0,0,1,1391.3,1126)">
            <path d="M58.545,14.6C85.791,14.6 108.35,-7.959 108.35,-35.205C108.35,-62.402 85.742,-85.01 58.496,-85.01C31.299,-85.01 8.74,-62.402 8.74,-35.205C8.74,-7.959 31.348,14.6 58.545,14.6Z" style="fill-rule:nonzero;"/>
        </g>
        <g id="Light-M" transform="matrix(1,0,0,1,1095.42,1126)">
            <path d="M57.715,13.77C84.522,13.77 106.689,-8.35 106.689,-35.205C106.689,-62.012 84.522,-84.18 57.666,-84.18C30.859,-84.18 8.74,-62.012 8.74,-35.205C8.74,-8.35 30.908,13.77 57.715,13.77ZM77.979,-50.537L72.998,-55.518L76.123,-58.643C77.588,-60.059 79.15,-60.205 80.469,-58.887L81.25,-58.106C82.617,-56.738 82.568,-55.176 81.104,-53.662L77.979,-50.537ZM41.016,-13.721L34.57,-10.986C33.74,-10.645 32.764,-11.475 33.203,-12.451L36.133,-18.701L70.361,-52.93L75.342,-47.949L41.016,-13.721Z" style="fill-rule:nonzero;"/>
        </g>
        <g id="Thin-M" transform="matrix(1,0,0,1,799.806,1126)">
            <path d="M56.641,12.695C82.91,12.695 104.492,-8.887 104.492,-35.205C104.492,-61.475 82.91,-83.057 56.592,-83.057C30.322,-83.057 8.74,-61.475 8.74,-35.205C8.74,-8.887 30.322,12.695 56.641,12.695ZM77.393,-52.246L73.731,-55.908L76.123,-58.301C77.295,-59.473 78.516,-59.619 79.59,-58.545L79.932,-58.203C81.055,-57.08 81.055,-55.908 79.785,-54.639L77.393,-52.246ZM39.258,-14.209L33.398,-11.279C32.91,-11.035 32.275,-11.523 32.568,-12.158L35.645,-17.871L71.631,-53.906L75.342,-50.195L39.258,-14.209Z" style="fill-rule:nonzero;"/>
        </g>
        <g id="Ultralight-M" transform="matrix(1,0,0,1,503.656,1126)">
            <path d="M56.055,12.109C82.08,12.109 103.369,-9.18 103.369,-35.205C103.369,-61.231 82.08,-82.519 56.055,-82.519C30.029,-82.519 8.74,-61.231 8.74,-35.205C8.74,-9.18 30.029,12.109 56.055,12.109ZM77.1,-53.076L74.072,-56.103L76.123,-58.106C77.148,-59.18 78.223,-59.277 79.15,-58.35L79.248,-58.252C80.225,-57.275 80.273,-56.299 79.102,-55.127L77.1,-53.076ZM38.33,-14.453L32.813,-11.426C32.52,-11.23 32.031,-11.572 32.275,-12.012L35.4,-17.481L72.315,-54.395L75.293,-51.367L38.33,-14.453Z" style="fill-rule:nonzero;"/>
        </g>
        <g id="Black-S" transform="matrix(1,0,0,1,2884.57,696)">
            <path d="M48.828,6.836C71.973,6.836 90.82,-12.012 90.82,-35.156C90.82,-58.301 71.973,-77.148 48.828,-77.148C25.684,-77.148 6.836,-58.301 6.836,-35.156C6.836,-12.012 25.684,6.836 48.828,6.836ZM64.16,-43.994L57.129,-51.025L59.912,-53.955C61.719,-55.811 64.209,-55.811 65.967,-54.053L67.188,-52.832C68.897,-51.123 68.945,-48.584 67.09,-46.777L64.16,-43.994ZM38.428,-18.213L32.813,-16.064C30.615,-15.234 28.369,-17.334 29.248,-19.629L31.348,-25.244L54.541,-48.633L61.719,-41.455L38.428,-18.213Z" style="fill-rule:nonzero;"/>
        </g>
        <g id="Heavy-S" transform="matrix(1,0,0,1,2588.47,696)">
            <path d="M48.242,6.201C70.996,6.201 89.6,-12.402 89.6,-35.156C89.6,-57.91 70.996,-76.563 48.193,-76.563C25.44,-76.563 6.836,-57.91 6.836,-35.156C6.836,-12.402 25.44,6.201 48.242,6.201ZM63.574,-44.385L56.982,-50.977L59.863,-53.955C61.572,-55.664 63.818,-55.713 65.478,-54.053L66.65,-52.881C68.262,-51.27 68.311,-48.975 66.553,-47.266L63.574,-44.385ZM37.353,-18.164L31.738,-16.016C29.834,-15.332 27.832,-17.139 28.613,-19.19L30.762,-24.756L54.395,-48.535L61.084,-41.846L37.353,-18.164Z" style="fill-rule:nonzero;"/>
        </g>
        <g id="Bold-S" transform="matrix(1,0,0,1,2292.44,696)">
            <path d="M47.559,5.518C69.873,5.518 88.232,-12.842 88.232,-35.205C88.232,-57.52 69.873,-75.879 47.51,-75.879C25.195,-75.879 6.836,-57.52 6.836,-35.205C6.836,-12.842 25.195,5.518 47.559,5.518ZM62.891,-44.824L56.836,-50.879L59.815,-53.955C61.377,-55.518 63.428,-55.615 64.941,-54.102L66.113,-52.93C67.578,-51.416 67.578,-49.365 65.967,-47.754L62.891,-44.824ZM36.182,-18.066L30.518,-16.016C28.906,-15.43 27.246,-16.943 27.93,-18.652L30.078,-24.17L54.248,-48.438L60.4,-42.236L36.182,-18.066Z" style="fill-rule:nonzero;"/>
        </g>
        <g id="Semibold-S" transform="matrix(1,0,0,1,1996.2,696)">
            <path d="M47.07,5.029C69.092,5.029 87.305,-13.135 87.305,-35.205C87.305,-57.227 69.092,-75.44 47.022,-75.44C25,-75.44 6.836,-57.227 6.836,-35.205C6.836,-13.135 25.049,5.029 47.07,5.029ZM62.451,-45.117L56.69,-50.879L59.766,-53.906C61.279,-55.42 63.135,-55.518 64.6,-54.102L65.674,-52.978C67.139,-51.563 67.09,-49.658 65.527,-48.096L62.451,-45.117ZM35.352,-18.018L29.688,-15.967C28.32,-15.479 26.856,-16.797 27.441,-18.311L29.59,-23.779L54.102,-48.34L59.912,-42.529L35.352,-18.018Z" style="fill-rule:nonzero;"/>
        </g>
        <g id="Medium-S" transform="matrix(1,0,0,1,1699.83,696)">
            <path d="M46.728,4.688C68.555,4.688 86.621,-13.379 86.621,-35.205C86.621,-57.031 68.506,-75.098 46.68,-75.098C24.854,-75.098 6.836,-57.031 6.836,-35.205C6.836,-13.379 24.902,4.688 46.728,4.688ZM62.109,-45.313L56.592,-50.83L59.717,-53.906C61.182,-55.371 62.94,-55.469 64.307,-54.102L65.381,-52.978C66.748,-51.66 66.699,-49.853 65.234,-48.389L62.109,-45.313ZM34.717,-17.969L29.053,-15.967C27.832,-15.527 26.514,-16.699 27.1,-18.018L29.248,-23.486L54.053,-48.291L59.57,-42.773L34.717,-17.969Z" style="fill-rule:nonzero;"/>
        </g>
        <g id="Regular-S" transform="matrix(1,0,0,1,1403.58,696)">
            <path d="M46.24,4.199C67.773,4.199 85.693,-13.672 85.693,-35.205C85.693,-56.738 67.725,-74.609 46.191,-74.609C24.707,-74.609 6.836,-56.738 6.836,-35.205C6.836,-13.672 24.756,4.199 46.24,4.199ZM61.67,-45.606L56.494,-50.781L59.668,-53.906C61.084,-55.273 62.647,-55.42 63.916,-54.102L64.99,-53.027C66.309,-51.758 66.211,-50.147 64.795,-48.731L61.67,-45.606ZM33.887,-17.92L28.223,-15.967C27.197,-15.625 26.123,-16.553 26.611,-17.676L28.76,-23.096L53.906,-48.193L59.082,-43.018L33.887,-17.92Z" style="fill-rule:nonzero;"/>
        </g>
        <g id="Light-S" transform="matrix(1,0,0,1,1107.6,696)">
            <path d="M45.508,3.467C66.699,3.467 84.229,-14.014 84.229,-35.205C84.229,-56.397 66.65,-73.877 45.508,-73.877C24.316,-73.877 6.836,-56.397 6.836,-35.205C6.836,-14.014 24.365,3.467 45.508,3.467ZM61.279,-46.728L56.982,-51.025L59.668,-53.662C60.889,-54.834 62.207,-54.981 63.33,-53.857L64.063,-53.125C65.234,-52.002 65.186,-50.635 63.916,-49.414L61.279,-46.728ZM32.666,-18.262L27.441,-16.162C26.66,-15.869 25.83,-16.602 26.172,-17.481L28.467,-22.559L54.785,-48.828L59.082,-44.531L32.666,-18.262Z" style="fill-rule:nonzero;"/>
        </g>
        <g id="Thin-S" transform="matrix(1,0,0,1,811.867,696)">
            <path d="M44.58,2.539C65.283,2.539 82.275,-14.502 82.275,-35.205C82.275,-55.908 65.234,-72.949 44.531,-72.949C23.828,-72.949 6.836,-55.908 6.836,-35.205C6.836,-14.502 23.877,2.539 44.58,2.539ZM60.742,-48.242L57.617,-51.367L59.619,-53.369C60.596,-54.346 61.621,-54.443 62.5,-53.565L62.891,-53.223C63.77,-52.295 63.818,-51.27 62.744,-50.244L60.742,-48.242ZM31.104,-18.652L26.367,-16.406C25.928,-16.211 25.391,-16.65 25.635,-17.236L28.027,-21.826L55.908,-49.658L59.033,-46.533L31.104,-18.652Z" style="fill-rule:nonzero;"/>
        </g>
        <g id="Ultralight-S" transform="matrix(1,0,0,1,515.644,696)">
            <path d="M44.043,2.002C64.502,2.002 81.299,-14.746 81.299,-35.205C81.299,-55.664 64.502,-72.412 44.043,-72.412C23.584,-72.412 6.836,-55.664 6.836,-35.205C6.836,-14.746 23.584,2.002 44.043,2.002ZM60.449,-48.975L57.959,-51.514L59.619,-53.223C60.498,-54.053 61.328,-54.15 62.109,-53.418L62.256,-53.272C63.086,-52.441 63.086,-51.611 62.158,-50.684L60.449,-48.975ZM30.273,-18.897L25.879,-16.504C25.586,-16.357 25.147,-16.699 25.342,-17.09L27.783,-21.436L56.445,-50.098L58.984,-47.559L30.273,-18.897Z" style="fill-rule:nonzero;"/>
        </g>
    </g>
</svg>
