<?xml version="1.0" encoding="UTF-8" standalone="no"?>
<!DOCTYPE svg PUBLIC "-//W3C//DTD SVG 1.1//EN" "http://www.w3.org/Graphics/SVG/1.1/DTD/svg11.dtd">
<svg width="100%" height="100%" viewBox="0 0 3300 2200" version="1.1" xmlns="http://www.w3.org/2000/svg" xmlns:xlink="http://www.w3.org/1999/xlink" xml:space="preserve" xmlns:serif="http://www.serif.com/" style="fill-rule:evenodd;clip-rule:evenodd;">
    <g id="Notes">
        <rect id="artboard" x="0" y="0" width="3300" height="2200" style="fill:white;"/>
        <path d="M263,292L3036,292" style="fill:none;fill-rule:nonzero;stroke:black;stroke-width:0.5px;"/>
        <g transform="matrix(1,0,0,1,263,322)">
            <text x="0px" y="0px" style="font-family:'SFProDisplay-Regular', 'SF Pro Display';font-size:16px;">W<tspan x="13.922px " y="0px ">e</tspan>ight/Scale V<tspan x="101.313px " y="0px ">a</tspan>riations</text>
        </g>
        <g transform="matrix(1,0,0,1,559.711,322)">
            <text x="-30.41px" y="0px" style="font-family:'SFProDisplay-Regular', 'SF Pro Display';font-size:16px;">Ultr<tspan x="-6.41px " y="0px ">a</tspan>light</text>
        </g>
        <g transform="matrix(1,0,0,1,856.422,322)">
            <text x="-14.824px" y="0px" style="font-family:'SFProDisplay-Regular', 'SF Pro Display';font-size:16px;">Thin</text>
        </g>
        <g transform="matrix(1,0,0,1,1153.13,322)">
            <text x="-16.957px" y="0px" style="font-family:'SFProDisplay-Regular', 'SF Pro Display';font-size:16px;">Light</text>
        </g>
        <g transform="matrix(1,0,0,1,1449.84,322)">
            <text x="-25.609px" y="0px" style="font-family:'SFProDisplay-Regular', 'SF Pro Display';font-size:16px;">Regular</text>
        </g>
        <g transform="matrix(1,0,0,1,1746.56,322)">
            <text x="-27.465px" y="0px" style="font-family:'SFProDisplay-Regular', 'SF Pro Display';font-size:16px;">Medium</text>
        </g>
        <g transform="matrix(1,0,0,1,2043.27,322)">
            <text x="-31.656px" y="0px" style="font-family:'SFProDisplay-Regular', 'SF Pro Display';font-size:16px;">Semibold</text>
        </g>
        <g transform="matrix(1,0,0,1,2339.98,322)">
            <text x="-15.145px" y="0px" style="font-family:'SFProDisplay-Regular', 'SF Pro Display';font-size:16px;">Bold</text>
        </g>
        <g transform="matrix(1,0,0,1,2636.69,322)">
            <text x="-21.461px" y="0px" style="font-family:'SFProDisplay-Regular', 'SF Pro Display';font-size:16px;">Heavy</text>
        </g>
        <g transform="matrix(1,0,0,1,2933.4,322)">
            <text x="-18.375px" y="0px" style="font-family:'SFProDisplay-Regular', 'SF Pro Display';font-size:16px;">Black</text>
        </g>
        <path d="M263,1903L3036,1903" style="fill:none;fill-rule:nonzero;stroke:black;stroke-width:0.5px;"/>
        <g transform="matrix(1,0,0,1,263,1933)">
            <path d="M9.248,0.83C13.555,0.83 17.139,-2.744 17.139,-7.051C17.139,-11.357 13.545,-14.932 9.238,-14.932C4.941,-14.932 1.367,-11.357 1.367,-7.051C1.367,-2.744 4.951,0.83 9.248,0.83ZM9.248,-0.654C5.703,-0.654 2.871,-3.496 2.871,-7.051C2.871,-10.605 5.693,-13.447 9.238,-13.447C12.793,-13.447 15.635,-10.605 15.645,-7.051C15.654,-3.496 12.803,-0.654 9.248,-0.654ZM6.396,-6.318L8.506,-6.318L8.506,-4.199C8.506,-3.76 8.799,-3.457 9.229,-3.457C9.678,-3.457 9.971,-3.76 9.971,-4.199L9.971,-6.318L12.1,-6.318C12.539,-6.318 12.842,-6.611 12.842,-7.041C12.842,-7.48 12.539,-7.783 12.1,-7.783L9.971,-7.783L9.971,-9.893C9.971,-10.342 9.678,-10.645 9.229,-10.645C8.799,-10.645 8.506,-10.342 8.506,-9.893L8.506,-7.783L6.396,-7.783C5.947,-7.783 5.645,-7.48 5.645,-7.041C5.645,-6.611 5.947,-6.318 6.396,-6.318Z" style="fill-rule:nonzero;"/>
        </g>
        <g transform="matrix(1,0,0,1,281.506,1933)">
            <path d="M11.709,2.91C17.158,2.91 21.67,-1.611 21.67,-7.051C21.67,-12.5 17.148,-17.012 11.699,-17.012C6.26,-17.012 1.748,-12.5 1.748,-7.051C1.748,-1.611 6.27,2.91 11.709,2.91ZM11.709,1.25C7.1,1.25 3.418,-2.441 3.418,-7.051C3.418,-11.66 7.09,-15.352 11.699,-15.352C16.309,-15.352 20,-11.66 20.01,-7.051C20.02,-2.441 16.318,1.25 11.709,1.25ZM7.988,-6.23L10.879,-6.23L10.879,-3.32C10.879,-2.832 11.211,-2.5 11.69,-2.5C12.178,-2.5 12.52,-2.832 12.52,-3.32L12.52,-6.23L15.43,-6.23C15.918,-6.23 16.25,-6.563 16.25,-7.041C16.25,-7.529 15.918,-7.871 15.43,-7.871L12.52,-7.871L12.52,-10.762C12.52,-11.27 12.178,-11.602 11.69,-11.602C11.211,-11.602 10.879,-11.26 10.879,-10.762L10.879,-7.871L7.988,-7.871C7.48,-7.871 7.148,-7.529 7.148,-7.041C7.148,-6.563 7.49,-6.23 7.988,-6.23Z" style="fill-rule:nonzero;"/>
        </g>
        <g transform="matrix(1,0,0,1,304.924,1933)">
            <path d="M14.971,5.664C21.934,5.664 27.695,-0.098 27.695,-7.051C27.695,-14.014 21.924,-19.775 14.961,-19.775C8.008,-19.775 2.256,-14.014 2.256,-7.051C2.256,-0.098 8.018,5.664 14.971,5.664ZM14.971,3.848C8.936,3.848 4.082,-1.016 4.082,-7.051C4.082,-13.096 8.926,-17.949 14.961,-17.949C21.006,-17.949 25.859,-13.096 25.869,-7.051C25.879,-1.016 21.016,3.848 14.971,3.848ZM10.059,-6.143L14.063,-6.143L14.063,-2.129C14.063,-1.592 14.434,-1.221 14.951,-1.221C15.488,-1.221 15.859,-1.592 15.859,-2.129L15.859,-6.143L19.883,-6.143C20.41,-6.143 20.791,-6.514 20.791,-7.031C20.791,-7.568 20.42,-7.949 19.883,-7.949L15.859,-7.949L15.859,-11.953C15.859,-12.51 15.488,-12.881 14.951,-12.881C14.434,-12.881 14.063,-12.5 14.063,-11.953L14.063,-7.949L10.059,-7.949C9.502,-7.949 9.131,-7.568 9.131,-7.031C9.131,-6.514 9.512,-6.143 10.059,-6.143Z" style="fill-rule:nonzero;"/>
        </g>
        <g transform="matrix(1,0,0,1,263,1953)">
            <text x="0px" y="0px" style="font-family:'SFProDisplay-Regular', 'SF Pro Display';font-size:16px;">Design V<tspan x="59.211px " y="0px ">a</tspan>riations</text>
        </g>
        <g transform="matrix(1,0,0,1,263,1971)">
            <text x="0px" y="0px" style="font-family:'SFProDisplay-Regular', 'SF Pro Display';font-size:16px;">Symbols ar<tspan x="74.039px " y="0px ">e</tspan> support<tspan x="136.977px " y="0px ">e</tspan>d in up t<tspan x="197.406px " y="0px ">o</tspan> nine weights and thr<tspan x="343.289px " y="0px ">e</tspan>e scales.</text>
        </g>
        <g transform="matrix(1,0,0,1,263,1989)">
            <text x="0px" y="0px" style="font-family:'SFProDisplay-Regular', 'SF Pro Display';font-size:16px;">F<tspan x="8.133px " y="0px ">o</tspan>r optimal lay<tspan x="96.43px " y="0px ">o</tspan>ut with t<tspan x="157.508px 165.547px " y="0px 0px ">ex</tspan>t and other symbols,<tspan x="306.883px 310.164px 317.578px " y="0px 0px 0px "> ve</tspan>rtically align</text>
        </g>
        <g transform="matrix(1,0,0,1,263,2007)">
            <text x="0px" y="0px" style="font-family:'SFProDisplay-Regular', 'SF Pro Display';font-size:16px;">symbols with the adjacent t<tspan x="181.344px 189.383px " y="0px 0px ">ex</tspan>t.</text>
        </g>
        <path d="M776,1919L776,1933" style="fill:none;fill-rule:nonzero;stroke:rgb(0,174,239);stroke-width:0.5px;"/>
        <g transform="matrix(1,0,0,1,776,1933)">
            <path d="M3.311,0.127C3.828,0.127 4.082,-0.068 4.268,-0.605L5.527,-4.063L11.289,-4.063L12.549,-0.605C12.734,-0.068 12.988,0.127 13.496,0.127C14.014,0.127 14.346,-0.186 14.346,-0.674C14.346,-0.84 14.316,-0.986 14.238,-1.201L9.658,-13.389C9.434,-13.994 9.033,-14.287 8.408,-14.287C7.803,-14.287 7.393,-13.994 7.178,-13.398L2.598,-1.191C2.52,-0.977 2.49,-0.83 2.49,-0.664C2.49,-0.176 2.803,0.127 3.311,0.127ZM6.006,-5.537L8.379,-12.109L8.428,-12.109L10.801,-5.537L6.006,-5.537Z" style="fill-rule:nonzero;"/>
        </g>
        <path d="M792.836,1919L792.836,1933" style="fill:none;fill-rule:nonzero;stroke:rgb(0,174,239);stroke-width:0.5px;"/>
        <g transform="matrix(1,0,0,1,776,1953)">
            <text x="0px" y="0px" style="font-family:'SFProDisplay-Regular', 'SF Pro Display';font-size:16px;">M<tspan x="13.063px 21.094px 25.633px " y="0px 0px 0px ">arg</tspan>ins</text>
        </g>
        <g transform="matrix(1,0,0,1,776,1971)">
            <text x="0px" y="0px" style="font-family:'SFProDisplay-Regular', 'SF Pro Display';font-size:16px;">L<tspan x="8.156px " y="0px ">e</tspan>ading and tr<tspan x="95.227px " y="0px ">a</tspan>iling mar<tspan x="159.031px " y="0px ">g</tspan>ins on the left and right side of each symbol</text>
        </g>
        <g transform="matrix(1,0,0,1,776,1989)">
            <text x="0px" y="0px" style="font-family:'SFProDisplay-Regular', 'SF Pro Display';font-size:16px;">can be adjust<tspan x="88.727px " y="0px ">e</tspan>d b<tspan x="117.609px " y="0px ">y</tspan> modifying the x<tspan x="230.703px " y="0px ">-</tspan>location of the mar<tspan x="360.664px " y="0px ">g</tspan>in guidelines.</text>
        </g>
        <g transform="matrix(1,0,0,1,776,2007)">
            <text x="0px" y="0px" style="font-family:'SFProDisplay-Regular', 'SF Pro Display';font-size:16px;">Modifications ar<tspan x="106.484px " y="0px ">e</tspan> aut<tspan x="139.008px " y="0px ">o</tspan>matically applied pr<tspan x="275.977px " y="0px ">o</tspan>portionally t<tspan x="361.93px " y="0px ">o</tspan> all</text>
        </g>
        <g transform="matrix(1,0,0,1,776,2025)">
            <text x="0px" y="0px" style="font-family:'SFProDisplay-Regular', 'SF Pro Display';font-size:16px;">scales and weights.</text>
        </g>
        <g transform="matrix(1,0,0,1,1289,1933)">
            <path d="M2.842,1.865L4.541,3.574C5.4,4.443 6.387,4.385 7.314,3.359L17.49,-7.852C17.754,-7.764 18.027,-7.783 18.34,-7.842L19.404,-8.037L20.068,-7.363L20.029,-6.807C19.99,-6.309 20.117,-5.928 20.606,-5.449L21.367,-4.707C21.846,-4.229 22.461,-4.199 22.93,-4.668L25.84,-7.588C26.309,-8.057 26.289,-8.652 25.811,-9.131L25.039,-9.893C24.561,-10.371 24.19,-10.527 23.711,-10.488L23.135,-10.44L22.49,-11.074L22.734,-12.197C22.861,-12.764 22.705,-13.203 22.119,-13.789L19.922,-15.977C16.582,-19.297 12.148,-19.219 9.258,-16.328C8.838,-15.918 8.809,-15.342 9.043,-14.951C9.277,-14.59 9.736,-14.355 10.381,-14.522C11.846,-14.863 13.369,-14.922 14.795,-13.984L14.209,-12.529C14.014,-12.051 13.984,-11.65 14.111,-11.289L3.047,-0.898C2.061,0.02 1.982,0.996 2.842,1.865ZM10.752,-15.957C13.184,-17.734 16.475,-17.432 18.701,-15.205L21.133,-12.793C21.367,-12.559 21.406,-12.373 21.338,-12.031L21.016,-10.547L22.52,-9.063L23.506,-9.121C23.76,-9.131 23.838,-9.111 24.033,-8.916L24.609,-8.34L22.168,-5.898L21.592,-6.475C21.397,-6.67 21.367,-6.748 21.377,-7.012L21.445,-7.988L19.951,-9.473L18.428,-9.219C18.106,-9.15 17.959,-9.18 17.715,-9.414L15.713,-11.416C15.459,-11.65 15.43,-11.816 15.586,-12.188L16.465,-14.277C14.902,-15.732 12.871,-16.357 10.84,-15.762C10.684,-15.723 10.625,-15.85 10.752,-15.957ZM5.273,2.305L4.102,1.143C3.633,0.684 3.74,0.342 4.141,-0.02L14.951,-10.195L16.416,-8.711L6.426,2.275C6.074,2.676 5.742,2.773 5.273,2.305Z" style="fill-rule:nonzero;"/>
        </g>
        <g transform="matrix(1,0,0,1,1289,1953)">
            <text x="0px" y="0px" style="font-family:'SFProDisplay-Regular', 'SF Pro Display';font-size:16px;">Exporting</text>
        </g>
        <g transform="matrix(1,0,0,1,1289,1971)">
            <text x="0px" y="0px" style="font-family:'SFProDisplay-Regular', 'SF Pro Display';font-size:16px;">Symbols should be outlined when e<tspan x="235.289px " y="0px ">x</tspan>porting t<tspan x="298.188px " y="0px ">o</tspan> ensur<tspan x="347px " y="0px ">e</tspan> the</text>
        </g>
        <g transform="matrix(1,0,0,1,1289,1989)">
            <text x="0px" y="0px" style="font-family:'SFProDisplay-Regular', 'SF Pro Display';font-size:16px;">design is pr<tspan x="75.641px " y="0px ">e</tspan>serv<tspan x="111.82px " y="0px ">e</tspan>d when submitting t<tspan x="251.031px " y="0px ">o</tspan> X<tspan x="272.414px " y="0px ">c</tspan>ode.</text>
        </g>
        <g id="template-version" transform="matrix(1,0,0,1,3036,1933)">
            <text x="-96.57px" y="0px" style="font-family:'SFProDisplay-Regular', 'SF Pro Display';font-size:16px;">T<tspan x="-89.383px " y="0px ">e</tspan>mplat<tspan x="-43.664px " y="0px ">e</tspan> v<tspan x="-25.633px " y="0px ">.</tspan>2.0</text>
        </g>
        <g transform="matrix(1,0,0,1,3036,1951)">
            <text x="-191.594px" y="0px" style="font-family:'SFProDisplay-Regular', 'SF Pro Display';font-size:16px;">Requir<tspan x="-148.766px " y="0px ">e</tspan>s X<tspan x="-120.234px " y="0px ">c</tspan>ode 12 or gr<tspan x="-33.938px " y="0px ">e</tspan>at<tspan x="-13.125px " y="0px ">e</tspan>r</text>
        </g>
        <g transform="matrix(1,0,0,1,3036,1969)">
            <text x="-204.289px" y="0px" style="font-family:'SFProDisplay-Regular', 'SF Pro Display';font-size:16px;">Gener<tspan x="-163.391px -155.359px -150.773px " y="0px 0px 0px ">ate</tspan>d fr<tspan x="-121.039px " y="0px ">o</tspan>m pencil.<tspan x="-53.453px " y="0px ">c</tspan>ir<tspan x="-37.602px " y="0px ">c</tspan>le.fill</text>
        </g>
        <g transform="matrix(1,0,0,1,3036,1987)">
            <text x="-143.117px" y="0px" style="font-family:'SFProDisplay-Regular', 'SF Pro Display';font-size:16px;">T<tspan x="-135.695px " y="0px ">y</tspan>peset at 100 points</text>
        </g>
        <g transform="matrix(1,0,0,1,263,726)">
            <text x="0px" y="0px" style="font-family:'SFProDisplay-Regular', 'SF Pro Display';font-size:16px;">Small</text>
        </g>
        <g transform="matrix(1,0,0,1,263,1156)">
            <text x="0px" y="0px" style="font-family:'SFProDisplay-Regular', 'SF Pro Display';font-size:16px;">Medium</text>
        </g>
        <g transform="matrix(1,0,0,1,263,1586)">
            <text x="0px" y="0px" style="font-family:'SFProDisplay-Regular', 'SF Pro Display';font-size:16px;">Lar<tspan x="20.961px " y="0px ">g</tspan>e</text>
        </g>
    </g>
    <g id="Guides">
        <g id="H-reference" transform="matrix(1,0,0,1,339,696)">
            <path d="M0.977,0L3.662,0L12.988,-24.463L45.752,-24.463L55.127,0L57.764,0L30.615,-70.459L28.125,-70.459L0.977,0ZM29.346,-67.139L29.443,-67.139L44.873,-26.709L13.867,-26.709L29.346,-67.139Z" style="fill:rgb(39,170,225);fill-rule:nonzero;"/>
        </g>
        <path id="Baseline-S" d="M263,696L3036,696" style="fill:none;fill-rule:nonzero;stroke:rgb(39,170,225);stroke-width:0.5px;"/>
        <path id="Capline-S" d="M263,625.541L3036,625.541" style="fill:none;fill-rule:nonzero;stroke:rgb(39,170,225);stroke-width:0.5px;"/>
        <g id="H-reference1" serif:id="H-reference" transform="matrix(1,0,0,1,339,1126)">
            <path d="M0.977,0L3.662,0L12.988,-24.463L45.752,-24.463L55.127,0L57.764,0L30.615,-70.459L28.125,-70.459L0.977,0ZM29.346,-67.139L29.443,-67.139L44.873,-26.709L13.867,-26.709L29.346,-67.139Z" style="fill:rgb(39,170,225);fill-rule:nonzero;"/>
        </g>
        <path id="Baseline-M" d="M263,1126L3036,1126" style="fill:none;fill-rule:nonzero;stroke:rgb(39,170,225);stroke-width:0.5px;"/>
        <path id="Capline-M" d="M263,1055.54L3036,1055.54" style="fill:none;fill-rule:nonzero;stroke:rgb(39,170,225);stroke-width:0.5px;"/>
        <g id="H-reference2" serif:id="H-reference" transform="matrix(1,0,0,1,339,1556)">
            <path d="M0.977,0L3.662,0L12.988,-24.463L45.752,-24.463L55.127,0L57.764,0L30.615,-70.459L28.125,-70.459L0.977,0ZM29.346,-67.139L29.443,-67.139L44.873,-26.709L13.867,-26.709L29.346,-67.139Z" style="fill:rgb(39,170,225);fill-rule:nonzero;"/>
        </g>
        <path id="Baseline-L" d="M263,1556L3036,1556" style="fill:none;fill-rule:nonzero;stroke:rgb(39,170,225);stroke-width:0.5px;"/>
        <path id="Capline-L" d="M263,1485.54L3036,1485.54" style="fill:none;fill-rule:nonzero;stroke:rgb(39,170,225);stroke-width:0.5px;"/>
        <path id="left-margin" d="M1391.3,1030.79L1391.3,1150.12" style="fill:none;fill-rule:nonzero;stroke:rgb(0,174,239);stroke-width:0.5px;"/>
        <path id="right-margin" d="M1508.39,1030.79L1508.39,1150.12" style="fill:none;fill-rule:nonzero;stroke:rgb(0,174,239);stroke-width:0.5px;"/>
    </g>
    <g id="Symbols">
        <g id="Regular-M">
            <path d="M1449.85,1140.6C1477.09,1140.6 1499.65,1118.04 1499.65,1090.8C1499.65,1063.6 1477.04,1040.99 1449.8,1040.99C1422.6,1040.99 1400.04,1063.6 1400.04,1090.8C1400.04,1118.04 1422.65,1140.6 1449.85,1140.6ZM1436.81,1113.27L1426.8,1113.27L1426.8,1083.26L1436.81,1083.26L1436.81,1113.27ZM1472.89,1113.27L1462.88,1113.27L1462.88,1097.16C1462.88,1093.13 1461.45,1090.5 1457.82,1090.5C1455.52,1090.51 1453.46,1091.97 1452.68,1094.13C1452.42,1094.91 1452.31,1095.74 1452.35,1096.56L1452.35,1113.24L1442.34,1113.24L1442.34,1083.22L1452.35,1083.22L1452.35,1087.46C1454.2,1084.25 1457.68,1082.32 1461.38,1082.46C1468.05,1082.46 1472.89,1086.76 1472.89,1096L1472.89,1113.27ZM1431.8,1079.06C1428.95,1079.06 1426.6,1076.71 1426.6,1073.85C1426.6,1071 1428.95,1068.65 1431.8,1068.65C1432,1068.63 1432.2,1068.62 1432.39,1068.62C1435.27,1068.62 1437.63,1070.98 1437.63,1073.85C1437.63,1076.72 1435.27,1079.09 1432.39,1079.09C1432.2,1079.09 1432,1079.08 1431.8,1079.06Z" style="fill-rule:nonzero;"/>
        </g>
    </g>
</svg>
